<svg width="500" height="500" viewBox="0 0 500 500" fill="none" xmlns="http://www.w3.org/2000/svg">
<rect width="500" height="500" rx="50" fill="#515151"/>
<path d="M437.996 249.764C437.92 354.113 353.782 438.456 249.967 438.255C146.233 438.058 61.909 353.328 62.0001 249.389C62.0911 145.457 146.597 60.9242 250.335 61.0001C354.241 61.0759 438.068 145.4 437.996 249.764ZM257.707 367.518C355.314 367.666 394.701 259.803 357.974 194.651C333.457 151.155 286.63 124.809 241.878 130.5C195.146 136.442 143.3 179.839 132.661 223.566C131.22 229.485 135.166 240.002 140.079 243.424C147.796 248.804 149.602 253.775 149.856 262.676C151.632 324.516 198.523 369.711 257.707 367.514V367.518Z" fill="white"/>
<path d="M195.826 249.351C214.652 254.514 223.856 245.667 233.342 231.355C247.224 210.412 261.744 208.647 279.797 220.447C300.247 233.814 306.765 260.103 295.193 282.53C283.887 304.437 259.024 314.928 234.036 308.326C210.281 302.051 195.64 280.629 195.826 249.347V249.351Z" fill="white"/>
</svg>
