<?xml version="1.0" encoding="UTF-8"?>
<svg id="Layer_1" data-name="Layer 1" xmlns="http://www.w3.org/2000/svg" viewBox="0 0 915.72 1000">
  <defs>
    <style>
      .cls-1 {
        fill: #515151;
      }
    </style>
  </defs>
  <path class="cls-1" d="M173.71,1000c-27.62-27.14-21.47-58.72-11.82-90.7,18.01-59.7,48.98-114.15,70.33-172.39,14.42-39.33,30.02-79.18,18-123.39-3.71-13.66-11.07-18.25-22.35-22.61-58.97-22.77-120.5-39.44-175.79-71.01C27.92,506.11-2.09,492.32,.12,459.44c2.03-30.23,30.97-43.14,54.67-56.51,15.62-8.81,32.73-14.97,53.29-24.15-3.77,25.13-5.36,47.42-1.12,70.07,10.67,56.98,43.81,94.88,95.78,116.98,14.45,6.14,31.14,5.59,46.68,2.25,15.93-3.42,28.17-.19,40.54,11.21,30.39,28,66.59,44.56,107.57,51.86,16.99,3.03,33.93,5.4,49.31,18.39,15.54,13.12,36.84-1.87,55.78-.59,5.6,.38,11.41-1.99,17.1-3.21,54.13-11.61,61.6-25.03,43.12-77.87-3.89-11.14-11.56-20.91-23.74-17.18-36.79,11.27-76.53,7.57-112.37,23.81-15.21,6.89-77.17-18.92-87.99-33.27-6.92-9.19,2.12-12.26,5.36-16.24,54.58-66.93,26.87-175.36-38.48-222.12-5.66-4.05-15.82-8.33-7.78-19.54,31.71-44.21,46.06-97.07,71.54-144.39,5.87-10.9,12.2-21.69,19.49-31.67,23.86-32.7,41.99-36,75.38-12.6,36.44,25.54,63.16,60.89,92.1,93.98,23.53,26.91,46.98,54.88,80.1,69.93,37.93,17.24,78.82,13.33,119.15,10.17,32.28-2.53,64.09-9.32,96.8-8.6,15.72,.34,29.76,4.64,42.95,11.2,21.68,10.78,25.71,27.47,13.76,49.15-21.35,38.73-55.2,67-83.99,99.46-22.62,25.51-43.31,52.1-60.54,81.6-14.93,25.55-20.47,59.82-11.57,79.8,12.24,27.49,25.56,56.37,40.93,83.37,17.98,31.57,32.83,64.95,48.49,97.8,5.45,11.43,9.61,24.83-.5,35.04-9.79,9.89-23.53,7.44-35.44,2.98-16.25-6.08-31.62-14.56-47.96-20.32-126.99-44.76-242.54-22.15-349.7,57.5-62.37,46.36-116.87,102.34-181.53,145.82-7.83,5.26-20.07,4.94-23.57,16.43h-30ZM459.76,444.2c-14.13,0-28.26-.1-42.38,.04-7.99,.08-17.82-4.31-23.23,3.71-6.05,8.98,.79,18.26,5.5,25.32,6.29,9.42,14.22,18.8,23.58,24.94,41.45,27.21,86.28,34.77,135.09,22.93,34.96-8.48,56.38-29.24,66.94-62.58,4.12-12.99,7.42-27.54-4.55-37.07-10.41-8.3-25.11-5.83-35.62,.43-39.18,23.31-82.13,23.24-125.32,22.28Zm144.42-51.83c17.57,14.7,34.43,26.76,45.14,44.78,1.99,3.35,2.76,9.17,8.15,5.35,3.76-2.66,8.36-7.31,8.59-11.31,1.56-27.32-32.04-49.62-61.88-38.83Zm-168.24-32.95c1.04-8.46,.45-17.49-10.22-18.22-7.94-.54-12.82,5.39-12.61,14.66,.23,10.33,2.04,21.98,12.71,22.99,11.96,1.14,5.48-12.97,10.12-19.44Zm117.01-30c-7.28,1.78-10.02,7.3-10.37,14.17-.42,8.23-.72,18.53,8.45,20.83,9.55,2.4,10.77-7.83,12.25-14.66,1.91-8.76-1.33-15.7-10.33-20.34Z"/>
  <path class="cls-1" d="M393.68-.07c2.16,9.08-5.2,11.1-10.76,14.23-104.02,58.53-148.58,150.39-150.07,266.71-.19,14.64,1.25,22,19.64,26.26,49.54,11.49,77.58,48.24,90.86,95.07,13.43,47.34,6.6,90.9-35.92,122.7-7.91,5.92-8.23,8.57-.63,16.22,34.63,34.86,77.45,50.86,124.77,57.46,4.74,.66,10.85,2.31,14.04-2.34,22.91-33.3,59.74-22.26,90.06-24.58,19.61-1.5,10.91,26.84,16.4,41.1,4.35,11.31-8.61,11.05-16.44,12.5-13.74,2.55-27.36,4.94-40.95,9-15.37,4.58-36.84,20.53-43.78-12.27-1.56-7.39-11.43-5.16-17.78-5.53-57.12-3.31-106.56-23.55-145.55-66.33-6.8-7.46-13.16-11.39-23.68-8.7-66.86,17.07-128.29-33.25-135.09-109.85-3.31-37.36,3.49-71.71,37.79-94.19,14.58-9.56,7.07-23.02,5.84-34.04-8.51-75.94,10.14-144.39,54.87-205.77,32.22-44.21,74.92-73.88,127.88-88.46,5.37-1.48,11.77-2.06,13.49-9.18h25ZM148.14,432.76c.77,30.34,19.29,63.87,56.53,85.72,35.35,20.73,74.63,10.22,97.18-24.35,25.43-38.99,19.04-77.75-2.11-115.52-19.99-35.69-58.16-53.78-90.75-44.8-38.26,10.54-60.97,42.64-60.85,98.96Z"/>
  <path class="cls-1" d="M396.09,36.89c95.64-38.55,216.72,3.42,281.78,96.09,8.06,11.48,14.45,24.14,21.72,36.19,16.31,27.01,15.7,65.98,56.96,76.21-32.49,6.26-62.62,7.46-92.97,4.21-18.55-1.98-25.82-14.25-31.76-30.24-28.25-76.01-78.25-132.31-153.85-163.71-25.89-10.75-53.07-18.05-81.89-18.74Z"/>
  <path class="cls-1" d="M168.16,440.44c13.62,29.84,33.29,53.38,70.62,66.13-38.15,3.13-65.99-24.65-70.62-66.13Z"/>
</svg>