<?xml version="1.0" encoding="UTF-8"?>
<svg id="Layer_1" data-name="Layer 1" xmlns="http://www.w3.org/2000/svg" viewBox="0 0 750.49 1000">
  <defs>
    <style>
      .cls-1 {
        fill: #515151;
      }
    </style>
  </defs>
  <path class="cls-1" d="M750.02,750.77c-37.77,37.78-73.66,73.79-109.69,109.67-30.24,30.11-59.78,61-91.2,89.83-35.81,32.86-79.24,49.31-127.86,49.48-129.57,.44-259.15,.22-388.72-.08-5.42-.01-10.84-3.54-16.26-5.43,2.3-5.72,3.12-12.91,7.12-16.95,56.76-57.43,113.62-114.76,171.14-171.42,37.17-36.6,82.93-55.64,134.78-55.98,137.79-.9,275.6-.33,413.4-.31,1.45,0,2.89,.46,7.29,1.19Z"/>
  <path class="cls-1" d="M1.15,250.28c7.08-7.46,10.8-11.56,14.7-15.46,57.1-57.17,114.39-114.16,171.3-171.51C229.21,20.93,279.56,.2,339.44,.48c124,.58,248.01,.17,372.02,.19,5.14,0,10.43-.54,15.39,.46,9.48,1.92,11.35,8.1,6.54,15.96-2.1,3.43-5.54,6.05-8.44,8.96-54.93,54.97-109.84,109.96-164.84,164.87-39.39,39.33-86.88,59.37-142.66,59.37-131.72,0-263.45,0-395.17,0H1.15Z"/>
  <path class="cls-1" d="M250.18,275.56v348.66c-5.09-4.65-8.82-7.82-12.28-11.27-67.64-67.62-135.01-135.52-203-202.79C11.57,387.08-.26,360.2,.5,327.47c.39-16.92,.07-33.85,.07-51.91H250.18Z"/>
  <path class="cls-1" d="M501.05,376.29c5.07,4.67,8.11,7.28,10.94,10.11,68.73,68.73,137.37,137.56,206.21,206.18,21.97,21.9,32.57,48.11,32.28,78.99-.15,16.91-.03,33.83-.03,52.09h-249.4V376.29Z"/>
  <path class="cls-1" d="M276.58,375.89h197.8v248.75h-197.8v-248.75Z"/>
</svg>