<svg width="337" height="348" viewBox="0 0 337 348" fill="none" xmlns="http://www.w3.org/2000/svg">
<path fill-rule="evenodd" clip-rule="evenodd" d="M312.182 280.032C375.109 223.886 293.865 191.849 308.838 144.402C323.812 96.955 361.711 25.6 220.3 38.1714C78.8876 50.7428 -38.5136 193.568 11.9003 260.787C62.3143 328.006 249.254 336.179 312.182 280.032Z" fill="white"/>
<path fill-rule="evenodd" clip-rule="evenodd" d="M195.44 164.927C199.526 166.911 203.61 168.895 207.695 170.878C214.131 174.003 220.677 177.203 225.866 182.117C231.055 187.032 234.767 194.022 233.989 201.112C233.074 209.447 226.464 215.869 220.257 221.53C212.166 228.91 204.075 236.29 195.983 243.67C192.438 246.904 188.555 251.51 190.464 255.905C195.424 267.32 199.916 280.305 195.406 291.904C194.133 295.179 191.497 298.56 187.976 298.399C185.356 298.279 183.278 296.227 181.593 294.224C174.895 286.265 169.924 276.869 167.12 266.864C163.529 254.053 163.967 239.04 172.706 228.986C179.497 221.173 191.198 215.919 191.921 205.609C178.691 194.414 159.552 190.6 143.019 195.861C126.485 201.123 113.109 215.284 108.84 232.047C106.515 241.175 111.719 250.573 118.12 257.502C124.521 264.432 132.373 270.177 137.298 278.215C147.204 294.382 142.879 315.083 138.245 333.452C136.636 339.827 126.93 340.89 122.099 336.415C117.267 331.941 116.435 324.631 116.947 318.078C117.459 311.525 118.994 304.901 117.707 298.455C114.382 281.817 94.8367 274.222 85.2586 260.198C77.9998 249.569 76.9999 235.662 79.6874 223.088C82.3755 210.514 88.3856 198.929 94.3321 187.519C83.2664 170.64 78.6212 149.689 81.5196 129.736C82.982 119.668 69.6825 111.922 71.0676 101.844C72.1728 93.7996 81.644 90.1675 89.6496 88.6542C104.887 85.7738 120.469 84.7092 135.958 85.49C139.421 85.6642 140.945 80.6513 139.211 77.6597C137.476 74.6676 134.089 73.1274 131.284 71.0957C125.634 67.0028 122.083 60.55 120.126 53.8682C117.613 45.2933 117.609 35.5569 122.275 27.9289C123.441 26.0228 125.445 23.1975 128.496 25.9354C129.411 21.1565 139.127 16.5633 145.34 19.1288C149.063 20.6665 153.03 17.5131 155.397 14.262C157.762 11.0109 160.052 7.08516 163.983 6.20302C171.024 4.62339 175.533 14.0111 174.723 21.1565C173.912 28.302 170.758 35.8506 173.854 42.3461C175.032 44.8156 177.071 46.9541 177.462 49.6602C177.801 52.008 177.193 51.0925 175.871 56.4976C174.549 61.9023 171.365 63.6386 170.052 66.6286C168.031 71.231 168.335 75.2736 164.113 79.3473C163.402 80.0327 164.849 81.6036 164.338 82.7674C174.737 82.9159 182.637 91.5565 190.685 98.1188C200.695 106.28 212.94 111.989 225.825 113.097C238.711 114.204 252.195 110.437 261.816 101.824C265.583 98.4531 274.567 102.858 275.223 97.8553C275.349 96.5595 275.003 96.0011 273.772 95.6823C273.134 95.5173 271.627 95.8603 271.159 95.2604C269.788 93.5021 277.777 90.4705 277.439 92.8851C277.353 93.5037 276.99 93.9607 277.036 94.3612C277.17 95.5261 277.835 95.8855 278.862 96.091C281.027 96.2258 284.129 94.7464 285.424 92.8851C286.291 91.6386 285.953 91.3077 285.272 91.2529C284.16 91.1625 282.133 91.8096 282.963 90.3943C283.985 88.6542 286.616 87.0038 289.12 88.5188C289.661 88.8459 289.471 89.481 289.193 90.1045C288.685 91.2491 287.883 92.3553 290.757 91.4556C295.199 90.0656 295.453 90.3258 296.601 90.6656C297.748 91.0053 299.434 93.0221 300.512 94.9064C302.732 98.7829 305.008 102.849 305.216 107.307C305.424 111.766 302.842 116.696 298.453 117.587C298.414 118.885 299.051 120.107 300.017 120.967C301.069 121.904 303.775 121.333 303.321 122.17C301.843 124.89 298.246 125.587 295.415 124.636C294.637 124.374 296.431 123.036 296.601 122.108C296.873 120.623 296.564 119.023 295.655 117.81C293.094 118.89 290.533 119.97 287.971 121.05C288.715 121.997 288.376 123.121 289.12 124.068C289.822 124.962 291.623 124.736 291.925 126.005C292.253 127.385 289.594 127.964 288.22 128.093C286.713 128.234 284.37 128.389 283.668 127.385C282.871 126.244 285.369 125.878 285.485 124.684C285.611 123.381 285.133 121.988 283.985 121.357C281.785 120.149 278.629 122.374 279.039 124.843C280.074 131.063 277.487 137.752 272.531 141.672C267.575 145.592 260.451 146.586 254.605 144.172C249.319 141.989 243.465 144.797 237.996 146.47C225.596 150.265 211.448 147.845 201.028 140.147C200.426 148.752 198.773 158.073 193.252 164.418C194.148 164.927 193.687 164.927 195.44 164.927Z" fill="white"/>
<path d="M140.287 71.7672C141.951 71.7672 143.3 70.4225 143.3 68.7636C143.3 67.1048 141.951 65.76 140.287 65.76C138.622 65.76 137.273 67.1048 137.273 68.7636C137.273 70.4225 138.622 71.7672 140.287 71.7672Z" fill="#FFB61D"/>
<path d="M161.909 65.7497C163.573 65.7497 164.922 64.4005 164.922 62.7362C164.922 61.0719 163.573 59.7227 161.909 59.7227C160.244 59.7227 158.895 61.0719 158.895 62.7362C158.895 64.4005 160.244 65.7497 161.909 65.7497Z" fill="#FFB61D"/>
<path fill-rule="evenodd" clip-rule="evenodd" d="M179.508 196.968C178.152 196.36 176.793 195.751 175.426 195.158C165.418 190.817 153.413 187.694 143.971 193.15C142.528 183.97 152.405 176.96 161.494 174.883C163.987 174.313 166.559 173.91 169.131 173.506C175.938 172.437 182.746 171.367 188.09 167.229C196.023 161.086 198.138 150.134 198.836 140.147C209.256 147.845 223.405 150.265 235.804 146.47C236.751 146.181 237.709 145.857 238.673 145.531C243.283 143.974 248.043 142.366 252.414 144.172C258.259 146.586 265.384 145.592 270.34 141.672C275.296 137.752 277.882 131.063 276.848 124.843C276.438 122.374 279.594 120.149 281.793 121.357C282.941 121.988 283.42 123.381 283.294 124.684C283.242 125.219 282.713 125.587 282.215 125.934C281.602 126.361 281.036 126.754 281.477 127.385C282.179 128.389 284.522 128.234 286.028 128.093C287.402 127.964 290.062 127.385 289.734 126.005C289.561 125.278 288.895 125.042 288.226 124.804C287.728 124.627 287.228 124.45 286.928 124.068C286.557 123.595 286.456 123.077 286.354 122.559C286.253 122.041 286.152 121.524 285.78 121.05L293.464 117.81C294.372 119.023 294.681 120.623 294.41 122.108C294.336 122.507 293.963 122.982 293.623 123.414C293.172 123.988 292.78 124.487 293.223 124.636C296.055 125.587 299.652 124.89 301.129 122.17C301.36 121.744 300.774 121.683 300.004 121.602C299.259 121.524 298.343 121.427 297.825 120.967C296.859 120.107 296.223 118.885 296.262 117.587C300.651 116.696 303.232 111.766 303.025 107.307C302.817 102.849 300.54 98.7829 298.321 94.9064C297.242 93.0221 295.557 91.0053 294.41 90.6656C294.338 90.6447 294.27 90.6239 294.205 90.6036C293.214 90.3001 292.731 90.1522 288.566 91.4556C285.985 92.2633 286.367 91.4545 286.841 90.453C286.894 90.3384 286.95 90.2217 287.002 90.1045C287.279 89.481 287.469 88.8459 286.928 88.5188C284.425 87.0038 281.793 88.6542 280.772 90.3943C280.162 91.4337 281.093 91.3609 282.072 91.2847C282.426 91.2568 282.786 91.2288 283.081 91.2529C283.761 91.3077 284.1 91.6386 283.232 92.8851C281.937 94.7464 278.836 96.2258 276.67 96.091C275.644 95.8855 274.978 95.5261 274.844 94.3612C274.82 94.1481 274.911 93.9191 275.015 93.6588C275.106 93.4292 275.207 93.175 275.248 92.8851C275.586 90.4705 267.596 93.5021 268.968 95.2604C269.273 95.6516 270.019 95.6423 270.678 95.6335C271.031 95.6291 271.359 95.6253 271.581 95.6823C272.812 96.0011 273.157 96.5589 273.031 97.8553C272.673 100.587 269.832 100.513 266.713 100.433C264.119 100.366 261.334 100.294 259.625 101.824C250.004 110.437 236.52 114.204 223.634 113.097C210.748 111.989 198.503 106.28 188.494 98.1188C187.112 96.9923 185.735 95.8044 184.349 94.6094C177.66 88.8405 170.761 82.8907 162.146 82.7674C162.4 82.1915 162.173 81.5159 161.966 80.8979C161.754 80.2661 161.562 79.6936 161.921 79.3473C164.145 77.2017 165.281 73.0227 166.265 69.4032C167.149 66.1502 167.911 63.3498 169.228 62.8847C171.864 61.9538 172.637 59.6295 173.529 56.9491C173.579 56.7995 173.629 56.6489 173.68 56.4976C173.984 55.5903 174.255 54.8572 174.487 54.2331C175.195 52.3236 175.525 51.4294 175.27 49.6602C175.015 47.8959 174.06 46.3727 173.099 44.8419C172.586 44.0244 172.073 43.2052 171.663 42.3461C169.41 37.6204 170.465 32.3379 171.52 27.0582C171.915 25.0806 172.31 23.1035 172.531 21.1565C173.342 14.0111 168.833 4.62339 161.792 6.20302C158.361 6.97279 156.181 10.0598 154.109 12.994C153.807 13.4225 153.506 13.8477 153.205 14.262C150.839 17.5131 146.871 20.6665 143.148 19.1288C136.936 16.5633 127.22 21.1565 126.304 25.9354C123.254 23.1975 121.249 26.0228 120.083 27.9289C115.417 35.5569 115.422 45.2933 117.934 53.8682C119.892 60.55 123.442 67.0028 129.093 71.0957C129.811 71.6162 130.568 72.1044 131.325 72.5926C133.524 74.0117 135.729 75.4341 137.019 77.6597C138.753 80.6513 137.23 85.6642 133.766 85.49C118.277 84.7092 102.696 85.7738 87.4581 88.6542C79.4526 90.1675 69.9813 93.7996 68.8762 101.844C68.1853 106.872 71.1495 111.32 74.112 115.765C77.0872 120.229 80.0608 124.692 79.3282 129.736C76.4297 149.689 81.0749 170.64 92.1406 187.519C86.1941 198.929 80.184 210.514 77.496 223.088C74.8085 235.662 75.8084 249.569 83.0672 260.198C86.85 265.737 92.1877 270.273 97.4663 274.759C105.554 281.632 113.504 288.388 115.515 298.455C116.46 303.187 115.884 308.015 115.309 312.84C115.1 314.588 114.892 316.335 114.755 318.078C114.243 324.631 115.075 331.941 119.907 336.415C122.666 338.97 127.014 339.72 130.536 338.706C130.506 339.245 130.475 339.746 130.445 340.218C130.285 342.788 130.18 344.474 130.632 346.472C130.75 346.993 130.942 347.586 131.442 347.775C132.438 348.152 133.103 346.632 133.035 345.6C132.78 341.691 132.291 339.485 131.821 338.24C133.871 337.328 135.478 335.729 136.053 333.452C140.688 315.083 145.012 294.382 135.107 278.215C131.835 272.875 127.271 268.546 122.698 264.211C120.388 262.02 118.077 259.828 115.928 257.502C109.528 250.573 104.323 241.175 106.648 232.047C110.917 215.284 124.293 201.123 140.827 195.861C157.361 190.6 176.5 194.414 189.73 205.609C189.237 212.631 183.652 217.308 177.993 222.045C175.345 224.263 172.68 226.495 170.515 228.986C161.776 239.04 161.337 254.053 164.928 266.864C167.732 276.869 172.703 286.265 179.401 294.224C181.087 296.227 183.164 298.279 185.785 298.399C189.305 298.56 191.942 295.179 193.215 291.904C197.725 280.305 193.232 267.32 188.273 255.905C186.363 251.51 190.246 246.904 193.792 243.67L218.066 221.53C224.273 215.869 230.883 209.447 231.797 201.112C232.575 194.022 228.863 187.032 223.675 182.117C218.486 177.203 211.939 174.003 205.504 170.878L193.249 164.927C197.289 170.1 203.386 173.005 209.389 175.865C210.549 176.417 211.705 176.967 212.843 177.532C219.867 181.023 227.078 186.117 228.686 193.772C230.663 203.176 223.483 211.808 216.827 218.76C208.399 227.563 199.897 236.43 189.885 243.394C186.478 245.764 182.7 247.968 178.548 248.117C174.396 248.265 169.88 245.672 169.228 241.584C168.639 237.893 171.191 234.51 173.591 231.638L191.337 210.396C194.034 207.168 197.587 206.328 201.814 205.329C203.301 204.977 204.871 204.606 206.517 204.103C196.559 204.61 188.08 200.81 179.508 196.968ZM107.686 139.88C108.402 146.309 110.39 152.747 114.421 157.817C118.452 162.888 124.733 166.418 131.219 166.138C133.391 166.044 134.087 162.824 132.797 161.08C131.679 159.568 129.829 158.879 128.036 158.212C127.761 158.11 127.488 158.008 127.22 157.904C125.193 157.12 123.032 155.809 122.666 153.673C128.385 158.107 136.922 158.518 143.043 154.655C145.174 160.748 152.242 164.407 158.638 163.401C165.035 162.395 170.381 157.301 172.503 151.205C172.543 151.088 172.583 150.97 172.623 150.852C172.945 149.903 173.277 148.928 174.009 148.256C174.692 147.63 175.622 147.364 176.516 147.118L194.005 142.299C194.439 142.179 194.932 142.066 195.317 142.299C195.728 142.548 195.841 143.082 195.901 143.557C197.111 153.117 191.725 163.158 183.076 167.468C178.438 169.779 173.138 170.534 167.884 171.283C161.028 172.26 154.249 173.226 149.12 177.622C146.329 180.014 144.392 183.156 142.452 186.305C141.525 187.809 140.598 189.315 139.575 190.74C133.306 199.485 121.793 205.406 111.567 201.989C105.698 200.028 101.136 195.387 97.3869 190.48C86.0993 175.706 80.1408 156.975 80.8273 138.42C80.9517 135.054 81.2985 131.645 82.5203 128.504C90.2695 137.477 99.2295 145.41 109.083 152.023C108.739 150.242 107.501 148.781 106.268 147.446C102.741 143.627 98.8487 140.051 94.9607 136.478C85.9185 128.171 76.8998 119.885 72.5571 108.619C71.6021 106.142 70.8963 103.439 71.4843 100.852C72.8184 94.9837 79.7397 92.5411 85.6588 91.3494C99.8744 88.4887 114.383 87.0712 128.885 87.1271C129.655 96.0779 137.13 104.083 146.069 105.262C155.007 106.441 164.427 100.48 166.937 91.8512C167.011 91.5948 167.081 91.3357 167.151 91.0754C167.463 89.916 167.778 88.7446 168.524 87.8164C169.436 86.68 171.293 86.1212 172.358 87.1173C180.255 94.4988 188.541 101.595 197.984 106.874C207.427 112.154 218.156 115.558 228.973 115.081C210.496 121.798 191.609 127.397 172.451 131.837C170.986 132.177 169.172 132.399 168.23 131.231C164.893 127.089 159.452 124.726 154.135 125.109C148.819 125.492 143.775 128.61 141.072 133.188C140.092 134.844 137.65 134.636 135.791 134.118C131.926 133.04 127.947 131.382 125.663 128.093C125.277 127.538 124.943 126.94 124.609 126.344C123.957 125.177 123.307 124.014 122.276 123.18C120.82 122.001 118.912 121.714 117.022 121.429C116.496 121.35 115.973 121.271 115.46 121.173C109.627 120.061 104.46 115.927 102.11 110.492C107.609 106.822 115.036 108.564 121.108 111.188C122.064 111.601 123.023 112.035 123.985 112.471C129.132 114.803 134.385 117.181 139.938 116.673C144.659 116.241 148.78 113.793 152.918 111.335C156.577 109.16 160.249 106.979 164.362 106.175C174.915 104.112 185.273 111.942 190.214 121.459C190.252 121.532 190.29 121.606 190.327 121.679C191.136 123.241 192.01 124.932 193.631 125.587C191.977 116.324 184.994 108.198 176.062 105.145C167.13 102.092 156.611 104.234 149.599 110.535C145.247 114.445 138.635 114.721 132.956 113.285C129.757 112.475 126.709 111.207 123.658 109.94C121.292 108.956 118.925 107.972 116.486 107.2C110.901 105.435 104.451 104.912 99.4799 108.003C97.9874 104.726 95.9914 101.678 93.5816 98.9977C95.9694 112.652 108.468 123.879 122.347 124.835L114.646 127.75C112.846 128.431 110.981 129.155 109.661 130.55C107.399 132.94 107.322 136.616 107.686 139.88ZM103.887 235.39C103.138 239.148 102.728 243.22 104.415 246.663C105.324 248.518 106.776 250.043 108.204 251.542L108.302 251.644C116.89 260.664 124.957 270.176 132.45 280.118C129.123 283.302 125.419 286.096 121.44 288.422C120.332 289.07 119.135 289.699 117.85 289.676C115.935 289.642 114.379 288.199 113.033 286.843C103.624 277.372 94.4583 267.66 85.5476 257.722C82.7143 254.562 79.8334 251.254 78.5458 247.216C76.9092 242.083 78.068 236.529 79.2361 231.271C82.4584 216.77 85.8478 201.873 94.249 189.605C98.9687 198.05 107.71 204.145 117.289 205.67C110.646 214.399 106.026 224.645 103.887 235.39ZM163.74 73.7251C162.334 76.6532 159.964 79.2399 156.889 80.3122C152.791 81.7422 148.283 80.3116 144.27 78.6575C142.185 77.7978 140.078 76.8444 138.463 75.2736C137.092 73.941 136.153 72.237 135.283 70.5368C132.574 65.2418 130.336 59.7079 128.602 54.0211C127.169 49.3189 126.43 43.368 130.246 40.2536C134.604 43.5866 140.466 44.4227 145.923 43.7904C150.776 43.2283 155.424 41.6212 160.047 40.023C160.624 39.8235 161.2 39.6241 161.777 39.4268C162.435 39.2016 163.214 38.994 163.783 39.3945C164.218 39.7008 164.371 40.2629 164.489 40.7802C166.245 48.4751 166.756 56.45 165.998 64.3049C165.686 67.5354 165.145 70.7976 163.74 73.7251ZM181.251 293.547C173.438 283.169 168.204 270.878 166.144 258.068C165.259 252.568 164.973 246.804 166.812 241.544C168.569 248.433 176.889 252.833 183.6 250.42C185.352 254.015 186.944 257.687 188.371 261.422C192.12 271.234 194.672 282.401 190.52 292.051C189.521 294.371 187.55 296.841 185.044 296.47C183.42 296.23 182.236 294.856 181.251 293.547ZM129.231 25.5787C131.206 22.0537 135.552 20.2628 139.59 20.6016C140.532 20.6807 141.47 20.7999 142.39 20.9168C145.304 21.287 148.029 21.6332 150.087 20.6016C153.221 19.0309 154.53 16.8475 155.863 14.6251C156.753 13.1415 157.653 11.6406 159.113 10.293C160.036 9.44043 161.066 8.62228 162.296 8.35276C164.81 7.80162 167.225 9.70978 168.657 11.8418C171.732 16.4178 172.137 22.6459 169.682 27.5793C166.979 33.0124 161.406 36.4122 155.831 38.8438C151.817 40.5944 147.569 42.0141 143.188 42.1045C138.807 42.1949 134.248 40.8125 131.228 37.6499C128.207 34.4868 127.095 29.3907 129.231 25.5787ZM116.879 311.501C116.691 310.113 116.543 308.563 117.388 307.444C120.852 307.755 124.428 306.504 126.936 304.103C126.174 302.534 123.812 302.64 122.32 303.551C121.747 303.901 121.221 304.33 120.696 304.759C119.855 305.446 119.016 306.13 117.996 306.475C117.009 305.502 117.186 303.785 118.007 302.669C118.827 301.553 120.117 300.895 121.359 300.277L129.177 296.38C127.675 294.898 125.171 294.879 123.254 295.766C121.337 296.652 119.87 298.26 118.458 299.827C116.891 297.1 118.009 293.187 120.783 291.69L130.913 286.228C131.699 285.804 132.534 285.368 133.428 285.394C135.365 285.452 136.533 287.541 137.063 289.397C138.596 294.769 138.128 300.478 137.648 306.042C136.942 314.223 136.225 322.468 133.922 330.352C133.128 333.07 131.875 336.03 129.239 337.083C126.379 338.226 123.014 336.492 121.304 333.938C119.594 331.384 119.139 328.222 118.728 325.18L116.879 311.501ZM251.918 126.005C253.014 125.871 253.964 124.609 253.43 123.646L249.664 116.859C249.168 115.965 248.66 115.033 248.594 114.013C248.528 112.994 249.04 111.861 250.015 111.545C251.411 111.094 252.695 112.439 253.503 113.66C255.206 116.232 256.691 118.947 257.936 121.767C259.414 119.805 257.8 117.095 256.324 115.13C254.849 113.166 253.558 110.153 255.403 108.528C257.225 106.923 260.122 108.568 261.518 110.553C262.251 111.595 262.854 112.751 263.455 113.904C264.618 116.135 265.773 118.351 267.853 119.69C268.751 119.143 268.304 117.772 267.759 116.874L260.781 105.366C260.158 104.337 261.189 102.941 262.383 102.767C263.577 102.594 264.729 103.23 265.727 103.906C270.525 107.162 274.346 112.144 275.248 117.857C276.149 123.571 273.701 129.919 268.67 132.803C267.148 133.675 265.453 134.219 263.73 134.552C253.24 136.585 241.761 129.893 238.398 119.788C237.883 118.241 237.759 116.128 239.219 115.396C240.333 114.837 241.678 115.501 242.605 116.331C243.945 117.53 244.902 119.065 245.86 120.6C246.783 122.079 247.706 123.559 248.972 124.741C249.778 125.494 250.821 126.139 251.918 126.005ZM142.494 137.36C143.783 137.399 145.118 137.44 146.189 138.132C147.371 138.894 147.886 140.824 146.767 141.675C146.343 141.996 145.793 142.09 145.267 142.174C140.379 142.955 134.802 143.563 131.001 140.401C130.147 140.789 129.897 141.961 130.246 142.83C130.595 143.699 131.371 144.317 132.148 144.843C135.596 147.18 139.725 148.507 143.894 148.62C141.164 150.976 137.168 151.778 133.734 150.658C132.387 150.218 130.491 149.716 129.895 150.999C132.539 153.517 136.574 153.71 140.232 153.757C133.698 156.86 125.126 154.839 120.68 149.149C120.364 148.744 119.65 148.951 119.398 149.399C119.147 149.847 119.215 150.399 119.291 150.907C119.675 153.492 120.204 156.334 122.263 157.953C123.353 158.81 124.706 159.183 126.059 159.556C126.599 159.705 127.139 159.854 127.663 160.034C129.499 160.664 131.397 162.048 131.415 163.983C125.499 164.491 119.708 161.151 116.128 156.432C112.547 151.714 110.901 145.798 110.143 139.931C109.947 138.415 109.809 136.844 110.251 135.38C111.131 132.464 114.022 130.702 116.686 129.21C118.619 128.128 121.284 127.131 122.816 128.726C127.81 133.924 134.881 137.085 142.098 137.347C142.229 137.352 142.361 137.356 142.494 137.36ZM155.181 147.84L230.883 126.959C234.179 126.05 238.081 125.255 240.719 127.425C210.747 136.654 180.39 144.645 149.754 151.371C148.086 151.737 145.709 151.663 145.418 149.987C146.425 150.024 146.421 148.899 146.417 147.709C146.413 146.539 146.408 145.305 147.368 145.055L235.586 122.097C236.119 121.959 236.796 121.866 237.123 122.308C237.655 123.026 236.566 123.829 235.703 124.068L151.567 147.375C152.33 148.42 153.931 148.185 155.181 147.84ZM240.533 141.823C235.072 145.47 228.138 146.427 221.609 145.655C215.081 144.884 208.857 142.517 202.808 139.953L239.026 129.838C240.296 129.483 241.864 129.204 242.759 130.169C250.109 138.08 263.482 139.492 272.332 133.291C271.3 138.214 266.83 142.22 261.808 142.722C258.946 143.009 256.129 142.269 253.325 141.533C252.582 141.338 251.839 141.143 251.098 140.967C247.558 140.13 243.556 139.805 240.533 141.823ZM140.444 81.2327C140.961 80.4946 142.074 80.0881 142.791 80.6354C146.994 83.8451 152.837 84.793 157.845 83.0769C159.443 82.5296 161.262 83.6632 161.921 85.2138C162.581 86.7644 162.315 88.5605 161.735 90.1423C159.97 94.959 155.219 98.5424 150.087 98.9281C144.956 99.3138 139.719 96.4806 137.249 91.9822C136.487 90.5932 136.232 88.4164 137.704 87.818C139.17 87.2208 139.591 85.3809 139.749 83.8095L139.754 83.7618C139.843 82.8808 139.936 81.957 140.444 81.2327ZM280.406 119.791C279.815 119.95 279.189 120.107 278.598 119.949C278.006 119.792 277.484 119.199 277.633 118.607C282.927 117.769 288.037 115.798 292.517 112.866C294.262 111.724 296.114 109.733 295.233 107.847C294.649 106.597 293.082 106.116 291.699 106.172C289.696 106.253 287.829 107.148 286.028 108.026L276.314 112.761C275.863 112.228 276.05 111.371 276.528 110.861C276.988 110.369 277.641 110.117 278.272 109.874L278.342 109.846C282.752 108.141 286.861 105.665 290.424 102.565C291.467 101.658 290.925 99.7872 289.734 99.0832C288.542 98.3791 287.045 98.5177 285.682 98.7714C281.732 99.5067 277.93 101.026 274.564 103.213C272.907 104.29 270.554 105.482 269.198 104.046C272.857 100.352 277.872 98.3796 282.73 96.508L292.132 92.8851C292.786 92.6337 293.492 92.3778 294.171 92.5509C295.095 92.7865 295.636 93.7169 296.055 94.5711C298.43 99.4163 300.178 104.566 301.243 109.852C301.397 110.619 301.525 111.467 301.129 112.142C300.77 112.754 300.069 113.068 299.412 113.338C293.222 115.889 286.87 118.046 280.406 119.791ZM235.942 120.114C235.591 120.487 235.066 120.633 234.568 120.763L148.232 143.287C149.572 140.061 153.512 138.958 156.936 138.213C180.756 133.032 204.092 125.889 227.401 118.753C228.727 118.347 230.052 117.941 231.378 117.536C232.528 117.184 233.78 116.834 234.907 117.254C236.034 117.674 236.766 119.241 235.942 120.114ZM119.092 34.2134C119.621 32.4886 120.485 30.1046 121.839 28.9058C122.528 28.2949 123.463 27.6428 124.293 28.045C124.815 28.2976 125.071 28.8817 125.285 29.4192C125.606 30.223 126.063 31.3007 126.519 32.3779C126.976 33.4557 127.433 34.5334 127.753 35.3372C128.203 36.4648 128.637 38.217 127.814 38.7863C124.293 41.2212 125.094 50.1101 126.671 54.2002C127.047 55.1766 127.37 57.1781 127.045 58.6367C126.721 60.0958 125.094 61.408 123.764 60.7182C123.001 60.3226 121.79 58.2263 121.352 57.4669C121.312 57.3973 121.278 57.3392 121.252 57.2943C114.767 46.2379 118.362 36.25 119.009 34.4523C119.049 34.3405 119.078 34.2605 119.092 34.2134ZM147.542 153.933C153.307 152.869 159.013 151.485 164.624 149.791C164.711 149.765 164.798 149.738 164.886 149.712C166.632 149.183 168.405 148.646 170.227 148.655C169.999 151.53 168.396 154.193 166.198 156.068C164 157.943 161.247 159.086 158.427 159.736C156.289 160.228 154.035 160.45 151.91 159.903C149.786 159.355 147.804 157.941 146.997 155.908C146.707 155.179 146.769 154.076 147.542 153.933ZM154.689 136.784C151.012 137.303 147.126 137.037 143.816 135.359C143.116 135.005 143.479 133.939 143.973 133.331C146.514 130.207 150.363 128.174 154.384 127.832C158.405 127.491 162.544 128.845 165.58 131.495C166.082 131.933 166.591 132.626 166.253 133.199C166.074 133.5 165.717 133.64 165.387 133.758C161.892 135.008 158.366 136.265 154.689 136.784ZM143.361 102.799C140.092 101.778 137.533 99.1851 135.664 96.3239C134.531 94.5897 133.604 92.7367 132.676 90.8831C132.074 89.6782 131.471 88.4739 130.811 87.3008C132.023 87.1003 133.202 87.9232 133.874 88.9473C134.354 89.6788 134.644 90.5061 134.935 91.3346C135.052 91.666 135.168 91.9981 135.297 92.3235C137.714 98.4388 144.913 102.106 151.396 100.894C157.88 99.682 163.137 93.9919 164.261 87.5156C164.379 86.8351 164.594 85.9929 165.273 85.8582C166.008 86.4691 166.041 87.5742 165.911 88.5188C164.97 95.376 158.732 100.535 152.068 102.484C149.239 103.31 146.173 103.678 143.361 102.799ZM272.962 106.905C277.046 103.728 281.861 101.488 286.928 100.409C287.537 100.279 288.45 100.412 288.395 101.03C288.378 101.225 288.251 101.391 288.125 101.542C285.608 104.567 281.923 106.338 278.357 108.017C277.359 108.488 276.305 108.97 275.203 108.902C274.1 108.834 272.96 108.006 272.962 106.905ZM290.639 108.427C291.164 108.26 291.739 108.103 292.255 108.296C292.771 108.489 293.112 109.195 292.749 109.608C289.621 113.166 284.942 114.921 280.376 116.214C279.183 116.552 277.428 116.543 277.224 115.323C281.269 112.303 285.824 109.961 290.639 108.427ZM167.823 56.3081C168.088 54.6802 168.403 52.7351 168.403 51.4771C168.403 49.749 168.666 47.6351 170.284 47.0198C171.834 46.4297 173.585 47.845 173.884 49.4717C174.183 51.0985 172.339 57.6658 171.423 59.0454C171.005 59.6755 170.518 60.304 169.829 60.6207C169.141 60.9379 168.203 60.8349 167.782 60.207C167.562 59.8799 167.513 59.4717 167.476 59.08C167.438 58.6876 167.615 57.5973 167.823 56.3081ZM167.861 35.8506C167.941 35.9662 167.976 36.1065 168.009 36.244C168.68 39.0849 168.941 42.0223 168.78 44.9367C168.009 45.2818 167.371 44.2572 167.145 43.4463L166.176 39.9775C165.796 38.6121 165.488 36.9409 166.506 35.9509C166.875 35.5914 167.566 35.4282 167.861 35.8506ZM127.098 66.7623C126.097 66.073 125.285 65.5141 125.285 63.809C125.285 61.7916 127.473 59.8251 127.95 60.207C129.684 61.5954 132.8 68.48 132.956 70.6908C131.651 70.1599 130.69 69.4361 128.934 68.114C128.552 67.8263 128.132 67.5107 127.663 67.1617C127.471 67.0192 127.281 66.8888 127.098 66.7623ZM138.476 145.416L142.012 144.671C142.453 144.578 142.989 144.514 143.284 144.854C143.852 145.508 142.733 146.335 141.864 146.351C140.676 146.373 139.484 146.044 138.476 145.416ZM245.809 113.045C246.449 113.117 246.989 113.931 246.569 114.416L246.53 114.46C245.977 114.881 245.342 115.324 244.654 115.226C243.965 115.127 243.481 114.122 244.05 113.726C244.578 113.357 245.17 112.972 245.809 113.045ZM250.897 123.578L250.093 123.461L250.014 123.453L248.312 120.844C249.805 120.362 251.469 122.122 250.897 123.578ZM247.157 118.868C246.503 118.9 245.978 118.087 246.277 117.507C246.577 116.927 247.546 116.88 247.901 117.428C248.255 117.977 247.811 118.837 247.157 118.868ZM157.907 33.7537L151.761 36.6538C147.065 38.8691 141.166 38.2954 136.989 35.2161C136.399 35.0802 135.888 35.7821 135.988 36.3771C136.088 36.9716 136.573 37.4215 137.059 37.7809C140.427 40.2679 145.031 40.5796 149.094 39.5485C153.156 38.5178 156.799 36.2988 160.328 34.0452C160.073 33.1527 158.749 33.3565 157.907 33.7537ZM152.128 47.2078C151.624 47.6576 150.749 47.0467 150.758 46.3716C150.766 45.6961 151.315 45.1536 151.882 44.7832C154.258 43.2299 157.665 43.471 159.796 45.3432C159.326 46.1141 158.226 45.9355 157.3 45.7848C157.227 45.7728 157.156 45.7613 157.085 45.7503C155.327 45.4747 153.455 46.0248 152.128 47.2078ZM140.746 49.7588C141.552 49.5753 142.405 48.9605 142.328 48.1398C142.264 47.4483 141.565 46.9891 140.893 46.8028C139.31 46.364 137.491 46.9343 136.446 48.1984C135.401 49.4624 135.186 51.3505 135.922 52.8151C136.276 52.4995 136.564 52.1116 136.852 51.7248C137.277 51.1516 137.7 50.5829 138.328 50.2646C138.803 50.0235 139.336 49.9594 139.871 49.8947C140.165 49.8591 140.459 49.824 140.746 49.7588ZM156.796 58.8646C157.771 58.8509 158.429 57.8466 158.674 56.9058C159.178 54.9711 158.666 52.8031 157.347 51.2963C156.751 50.6141 155.734 50.0465 154.974 50.5429C154.74 50.6963 154.571 50.9325 154.435 51.1774C153.482 52.8924 153.96 55.0369 154.7 56.8532C155.089 57.8071 155.762 58.8794 156.796 58.8646ZM144.465 58.8685L144.174 55.8516C144.064 54.7038 143.817 53.3537 142.767 52.8683C141.332 52.2047 139.817 53.7942 139.441 55.3246C139.038 56.9683 139.271 58.7589 140.082 60.2459C140.818 61.5943 142.65 62.7241 143.82 61.7258C144.595 61.064 144.562 59.881 144.465 58.8685ZM142.041 284.995C150.127 284.755 158.213 284.519 166.299 284.285C167.187 284.259 168.141 284.252 168.878 284.747C169.561 285.205 169.936 286.081 169.793 286.89L146.056 287.335C145.174 287.352 144.261 287.363 143.45 287.018C142.639 286.673 141.954 285.869 142.041 284.995ZM150.347 68.6323C149.481 68.3857 149.889 67.1041 150.297 66.3031C151.613 63.7148 150.872 60.5407 149.553 57.9534L149.52 57.8899C149.228 57.3168 148.915 56.7042 149.019 56.073C149.127 55.4188 149.955 54.8742 150.473 55.2917C150.628 55.4171 150.722 55.6007 150.812 55.7793C151.802 57.7441 152.773 59.7638 153.096 61.9384C153.418 64.1131 153.003 66.5003 151.506 68.1156C151.203 68.4427 150.776 68.7545 150.347 68.6323ZM151.64 76.8751C155.699 76.2269 158.954 72.2891 158.815 68.1956C158.806 67.9523 158.784 67.6986 158.659 67.4899C158.307 66.9036 157.348 67.0406 156.896 67.554C156.524 67.9759 156.382 68.5359 156.243 69.0882C156.213 69.207 156.183 69.3254 156.151 69.4421C155.608 71.4124 154.258 73.1487 152.479 74.1651C152.393 74.2144 152.304 74.2632 152.216 74.312C151.696 74.598 151.161 74.8922 150.889 75.4067C150.57 76.0089 150.965 76.9825 151.64 76.8751ZM176.421 323.385C176.594 328.247 177.136 343.673 176.503 346.472C176.386 346.993 176.194 347.586 175.694 347.775C174.697 348.152 174.112 346.662 174.1 345.6C174 336.994 173.9 326.881 173.8 316.768V316.768C173.699 306.655 173.599 296.542 173.499 287.936C175.151 287.936 175.694 293.743 175.694 297.493C175.694 310.095 176.421 323.385 176.421 323.385ZM119.579 216.501C119.337 216.36 119.056 216.219 118.767 216.075C117.616 215.5 116.351 214.866 117.017 213.974C134.631 214.734 152.286 214.558 169.882 213.446C174.865 213.131 180.486 212.405 183.449 208.4C183.567 208.239 183.682 208.074 183.796 207.908C184.19 207.337 184.586 206.763 185.165 206.393C185.913 205.915 187.109 205.976 187.483 206.778C186.955 211.072 182.917 214.651 178.575 214.673C176.676 214.682 176.032 217.153 175.791 219.03C175.55 220.907 174.25 223.313 172.468 222.66C172.917 221.12 173.209 219.535 173.335 217.936C173.378 217.4 173.367 216.778 172.951 216.436C172.628 216.17 172.168 216.169 171.749 216.181L125.259 217.503C124.964 217.511 124.639 217.531 124.429 217.737C124.172 217.988 124.195 218.4 124.237 218.756L127.537 246.787C127.609 247.403 127.861 248.191 128.484 248.194L154.839 248.339C156.24 248.346 158.234 249.413 157.378 250.518C157.028 250.971 156.37 251.013 155.797 251.015L128.975 251.123C127.843 251.128 127.523 252.662 127.564 253.789L127.991 265.324C124.769 263.036 124.548 258.444 124.526 254.502C124.46 243.016 123.43 231.534 121.449 220.218C121.201 218.806 120.822 217.222 119.579 216.501Z" fill="#00160A"/>
<path fill-rule="evenodd" clip-rule="evenodd" d="M179.256 270.952C180.359 268.458 182.93 266.676 185.661 266.513C186.37 266.47 187.176 266.575 187.61 267.136C188.043 267.698 187.671 268.765 186.966 268.673C185.273 268.451 183.584 269.312 182.396 270.534C181.209 271.755 180.434 273.307 179.678 274.831C178.591 273.945 178.689 272.232 179.256 270.952Z" fill="#00160A"/>
<path fill-rule="evenodd" clip-rule="evenodd" d="M299.854 32.3127C301.241 32.4436 302.527 31.6421 303.677 30.8574C306.876 28.6751 310.32 25.7005 310.11 21.8426C310.044 20.6174 309.6 19.4647 309.157 18.3106C308.968 17.8167 308.777 17.3226 308.617 16.8225C307.779 14.2105 307.748 11.4565 307.717 8.69536C307.691 6.43066 307.666 4.16115 307.195 1.96133C307.026 1.17244 306.688 0.276273 305.911 0.0519022C305.472 -0.0745015 305.006 0.05393 304.569 0.181923L290.598 4.26925C287.968 5.03869 287.404 8.44309 287.329 11.1747L287.124 18.6071C286.293 18.7108 285.505 18.3864 284.717 18.0618C284.416 17.938 284.115 17.8141 283.812 17.7141C280.827 16.729 277.217 18.3853 276.025 21.2867C274.834 24.1882 276.243 27.8932 279.064 29.2778C281.885 30.6624 285.689 29.5161 287.269 26.8056C288.342 24.9651 288.405 22.7302 288.441 20.6016L288.507 16.6048C288.531 15.1111 290.212 14.2828 291.633 13.8079C296.009 12.3452 300.425 11.0028 304.875 9.78253C305.315 9.66193 305.861 9.57147 306.162 9.91353C306.324 10.0984 306.36 10.3588 306.388 10.6028L306.997 15.8356C307.087 16.6116 306.999 17.6552 306.234 17.8197C302.535 18.6142 299.246 21.133 297.523 24.4919C296.789 25.9229 296.325 27.5661 296.65 29.1408C296.975 30.715 298.249 32.162 299.854 32.3127ZM305.505 2.37982C305.661 2.53784 305.706 2.77065 305.744 2.989L306.168 5.44535C306.28 6.09419 306.386 6.79113 306.103 7.38666C305.657 8.32743 304.472 8.61048 303.445 8.81261C301.07 9.27954 298.726 9.89918 296.432 10.6664C294.515 11.3076 292.635 12.0511 290.755 12.7943C290.597 12.8571 290.438 12.9199 290.279 12.9826C289.833 13.1588 289.218 13.2858 288.963 12.8825C288.899 12.7815 288.872 12.6621 288.85 12.5448C288.401 10.1629 289.505 7.56474 291.536 6.21972C292.655 5.47894 293.978 5.1155 295.275 4.76336L304.394 2.28778C304.771 2.18548 305.231 2.10318 305.505 2.37982ZM287.106 21.9676C287.067 24.2699 286.511 26.902 284.463 28.0165C282.838 28.9003 280.717 28.4757 279.243 27.365C277.511 26.0613 276.56 23.4649 277.826 21.7178C278.353 20.9901 279.176 20.5184 280.028 20.2098C281.987 19.501 284.224 19.5722 286.131 20.4042C286.435 20.537 286.746 20.701 286.922 20.9791C287.105 21.2675 287.111 21.6278 287.106 21.9676ZM43.0118 27.1119C43.2485 27.8384 44.2791 27.8105 45.0253 27.6357L51.8113 26.049C51.6222 24.2872 51.2787 22.5419 50.7867 20.8393C50.6415 20.3375 50.4667 19.8126 50.0716 19.4692C49.4607 18.9373 48.5457 19.0109 47.7408 19.1153L37.3184 20.4672C36.6023 20.56 35.6473 21.0237 35.9201 21.6895C38.3057 27.5228 40.1878 33.5614 41.5384 39.7156C41.7965 40.8925 41.7532 42.5455 40.5719 42.8042C37.1507 43.5515 34.2232 46.2275 33.1811 49.5588C32.8606 50.584 32.7148 51.7226 33.1296 52.7132C33.3542 53.2501 33.7318 53.712 34.1542 54.1131C36.1837 56.0396 39.4196 56.5749 41.9647 55.4062C44.5098 54.2369 46.2028 51.4371 46.0505 48.6488C45.993 47.5957 45.6987 46.5711 45.4067 45.5574L38.7441 22.4477L47.5655 21.7579C48.452 21.8074 48.8262 23.0619 48.3578 23.8131C47.8898 24.5644 46.96 24.8768 46.09 25.0512C45.9645 25.0763 45.8379 25.1001 45.7113 25.1239C44.9574 25.2654 44.1903 25.4094 43.5789 25.8587C43.1833 26.1495 42.86 26.6456 43.0118 27.1119Z" fill="#FFB61D"/>
<path fill-rule="evenodd" clip-rule="evenodd" d="M177.803 263.478C177.538 263.821 176.94 263.723 176.685 263.373C176.43 263.022 176.452 262.537 176.592 262.127C176.84 261.393 177.404 260.809 177.994 260.305C179.478 259.038 181.244 258.1 183.128 257.581C183.87 257.376 184.736 257.257 185.351 257.72C185.966 258.183 185.867 259.418 185.1 259.487C182.256 259.741 179.544 261.224 177.803 263.478Z" fill="#00160A"/>
</svg>
